<svg xmlns="http://www.w3.org/2000/svg" viewBox="-2 -443 516 516" fill="currentColor">
  <path d="M464 4 L410 4 Q362 4 362 -41 L362 -41 L362 -328 Q362 -374 410 -374 L410 -374 L464 -374 Q512 -374 512 -328 L512 -328 L512 -41 Q512 4 464 4 L464 4 ZM415 -26 L415 -26 L459 -26 Q480 -26 480 -47 L480 -47 L480 -323 Q480 -343 459 -343 L459 -343 L415 -343 Q403 -343 399 -338.5 Q395 -334 395 -323 L395 -323 L395 -47 Q395 -35 399 -30.5 Q403 -26 415 -26 ZM283 4 L229 4 Q181 4 181 -41 L181 -41 L181 -270 Q181 -315 229 -315 L229 -315 L283 -315 Q331 -315 331 -270 L331 -270 L331 -41 Q331 4 283 4 L283 4 ZM234 -26 L234 -26 L278 -26 Q299 -26 299 -47 L299 -47 L299 -264 Q299 -275 294.5 -279.5 Q290 -284 278 -284 L278 -284 L234 -284 Q213 -284 213 -264 L213 -264 L213 -47 Q213 -26 234 -26 ZM102 4 L48 4 Q0 4 0 -41 L0 -41 L0 -211 Q0 -256 48 -256 L48 -256 L102 -256 Q150 -256 150 -211 L150 -211 L150 -41 Q150 4 102 4 L102 4 ZM53 -26 L53 -26 L97 -26 Q117 -26 117 -47 L117 -47 L117 -205 Q117 -226 97 -226 L97 -226 L53 -226 Q32 -226 32 -205 L32 -205 L32 -47 Q32 -26 53 -26 Z"/>
</svg>
