<svg xmlns="http://www.w3.org/2000/svg" viewBox="-2 -444.5 505 505" fill="currentColor">
  <path d="M0 -194 L0 -194 Q0 -202 6 -208 L6 -208 L225 -407 Q236 -417 250 -417 L250 -417 Q266 -417 276 -407 L276 -407 L361 -329 L361 -402 Q361 -417 377 -417 L377 -417 L405 -417 Q420 -417 420 -402 L420 -402 L420 -275 L494 -208 Q501 -201 501 -194 Q501 -187 495.5 -182 Q490 -177 482 -177 Q474 -177 467 -184 L467 -184 L258 -375 Q254 -378 250 -378 Q246 -378 243 -375 L243 -375 L34 -184 Q27 -177 18 -177 L18 -177 Q0 -177 0 -194 ZM61 -14 L61 -14 L61 -170 L243 -334 Q249 -338 250 -338 L250 -338 Q254 -338 257 -335 L257 -335 L439 -171 L439 -14 Q439 33 391 33 L391 33 L305 33 L305 -119 Q305 -135 288 -135 L288 -135 L213 -135 Q196 -135 196 -119 L196 -119 L196 33 L110 33 Q87 33 74 20.5 Q61 8 61 -14 Z"/>
</svg>
