<svg xmlns="http://www.w3.org/2000/svg" viewBox="-27.77 -445.52 503.03 503.03" fill="currentColor">
  <path d="M62 -222 L62 -222 L84 -245 Q105 -264 126 -255 L126 -255 Q127 -262 136 -273 L136 -273 Q179 -327 196 -407 L196 -407 Q200 -424 210 -434 L210 -434 Q221 -444 234.5 -443.5 Q248 -443 259 -432 L259 -432 L427 -264 Q466 -226 429 -189 L429 -189 L332 -92 Q321 -81 307 -78 L307 -78 Q323 -52 301 -28 L301 -28 L279 -6 Q250 23 219 -8 L219 -8 L177 -49 Q174 -45 156.5 -12 Q139 21 127 33 L127 33 Q104 56 76 55.5 Q48 55 24 32 L24 32 Q1 8 0.5 -20 Q0 -48 23 -71 L23 -71 Q35 -83 68 -100.5 Q101 -118 105 -121 L105 -121 L64 -162 Q33 -193 62 -222 ZM303 -109 L303 -109 L403 -210 Q418 -224 402 -240 L402 -240 L387 -255 Q363 -234 329.5 -212.5 Q296 -191 289 -198 L289 -198 Q285 -202 290 -207 L290 -207 Q338 -255 344 -297 L344 -297 L243 -399 Q236 -406 231 -399 L231 -399 Q228 -396 227 -392 L227 -392 Q208 -320 164 -256 L164 -256 Q151 -237 165 -223 L165 -223 L164 -223 L277 -110 Q290 -96 303 -109 ZM104 -217 L90 -203 Q78 -191 90 -181 L90 -181 L143 -129 Q155 -119 138 -105 L138 -105 Q131 -100 93 -79 Q55 -58 46 -49 L46 -49 Q32 -36 32 -20 Q32 -4 46 10 Q60 24 76 24 Q92 24 105 10 L105 10 Q114 1 135 -36.5 Q156 -74 161 -81 L161 -81 Q175 -98 185 -87 L185 -87 L237 -34 Q248 -23 259 -34 L259 -34 L273 -48 Q283 -58 272 -70 L272 -70 L126 -216 Q114 -228 104 -217 L104 -217 ZM60 -4 L60 -4 Q49 -15 60 -27 Q71 -39 83 -27 L83 -27 Q94 -15 83 -4 L83 -4 Q72 8 60 -4 Z"/>
</svg>
